#!OML:ASF H:\Punching\Project 1\Capture day 1\Session 1\female.ASF
:FULLY-SPECIFIED
:DEGREES
1674
root 1.64506 15.5411 8.31195 11.1977 -0.0788314 -1.00061
lowerback -0.563987 -0.0725498 -1.15567
upperback -5.87017 -0.0861818 0.893946
thorax -5.75696 0.0404809 1.57845
lowerneck -9.47679 4.72155 11.3941
upperneck 25.3265 6.84092 -9.24256
head 10.3392 3.26632 -4.42288
rclavicle 1.57785e-015 -2.5842e-015
rhumerus -10.0778 1.96965 -63.968
rradius 105.167
rwrist -2.47507
rhand -36.2937 5.83578
rfingers 7.12502
rthumb -9.39316 -23.9349
lclavicle 1.57785e-015 -2.5842e-015
lhumerus -33.217 -23.4162 78.8215
lradius 123.531
lwrist 3.69803
lhand -21.5069 12.6908
lfingers 7.12502
lthumb 4.88488 42.6145
rfemur -37.9807 6.39584 0.393978
rtibia 27.7843
rfoot 4.68179 -7.18655
rtoes -18.1859
lfemur -2.03814 -7.88949 -17.2225
ltibia 13.9457
lfoot -19.5205 11.5193
ltoes -7.02705
1675
root 1.57053 15.5474 8.37741 11.2372 1.23891 -0.985174
lowerback -0.651377 -0.0617305 -1.14042
upperback -5.94857 -0.0700303 0.864894
thorax -5.79049 0.0484756 1.539
lowerneck -9.63229 4.36834 10.9187
upperneck 25.6933 6.35176 -8.88668
head 10.4129 3.03342 -4.28038
rclavicle -4.68076e-015 9.59136e-015
rhumerus -9.07284 1.77215 -63.9721
rradius 105.396
rwrist -2.25198
rhand -36.4448 5.67661
rfingers 7.12502
rthumb -9.53902 -24.0875
lclavicle -4.68076e-015 9.59136e-015
lhumerus -32.7221 -24.6317 79.4092
lradius 124.151
lwrist 3.26454
lhand -21.439 12.2245
lfingers 7.12502
lthumb 4.95051 42.1467
rfemur -37.4767 6.59238 -0.0130213
rtibia 27.1298
rfoot 5.24943 -7.30842
rtoes -18.3389
lfemur -1.5009 -8.40605 -16.6752
ltibia 12.7443
lfoot -19.0237 10.846
ltoes -7.43403
1676
root 1.49207 15.5525 8.44576 11.2685 2.60635 -0.981306
lowerback -0.737344 -0.0448571 -1.11875
upperback -6.02091 -0.0454287 0.836159
thorax -5.81868 0.0603302 1.4959
lowerneck -9.79052 4.00139 10.4222
upperneck 26.06 5.84273 -8.51332
head 10.4889 2.79186 -4.12982
rclavicle -2.80084e-015 4.96962e-015
rhumerus -8.11284 1.58592 -63.985
rradius 105.614
rwrist -1.97452
rhand -36.6548 5.49695
rfingers 7.12502
rthumb -9.74161 -24.2578
lclavicle -2.80084e-015 4.96962e-015
lhumerus -32.2352 -25.8592 80.029
lradius 124.728
lwrist 2.93614
lhand -21.3283 11.7715
lfingers 7.12502
lthumb 5.05736 41.6912
rfemur -36.9164 6.63387 -0.255679
rtibia 26.6994
rfoot 5.75531 -7.43111
rtoes -18.3955
lfemur -0.951718 -8.96726 -16.0837
ltibia 11.5026
lfoot -18.5113 10.1772
ltoes -7.86082
1677
root 1.40979 15.5559 8.51689 11.2969 4.01059 -0.989367
lowerback -0.826729 -0.0179227 -1.09039
upperback -6.08619 -0.00712526 0.804663
thorax -5.83787 0.0785152 1.44558
lowerneck -9.95507 3.6203 9.90278
upperneck 26.4225 5.31095 -8.11477
head 10.5665 2.54091 -3.96827
rclavicle -5.0395e-016 -6.53505e-015
rhumerus -7.19097 1.40021 -64.0122
rradius 105.811
rwrist -1.62563
rhand -36.9415 5.3579
rfingers 7.12502
rthumb -10.0182 -24.3837
lclavicle -5.0395e-016 -6.53505e-015
lhumerus -31.7589 -27.094 80.6727
lradius 125.267
lwrist 2.72559
lhand -21.1936 11.3185
lfingers 7.12502
lthumb 5.18746 41.235
rfemur -36.309 6.51903 -0.330255
rtibia 26.4708
rfoot 6.24795 -7.5822
rtoes -18.3463
lfemur -0.411237 -9.5643 -15.4494
ltibia 10.2477
lfoot -17.997 9.51971
ltoes -8.29759
1678
root 1.32354 15.5576 8.59034 11.3267 5.45606 -1.0116
lowerback -0.915491 0.0181999 -1.05331
upperback -6.14992 0.0437483 0.770826
thorax -5.85607 0.102474 1.38747
lowerneck -10.1206 3.22072 9.35614
upperneck 26.781 4.75117 -7.68926
head 10.645 2.27815 -3.79511
rclavicle 4.28047e-015 -2.26615e-014
rhumerus -6.29642 1.20684 -64.0625
rradius 105.971
rwrist -1.20326
rhand -37.3069 5.32854
rfingers 7.12502
rthumb -10.3707 -24.3957
lclavicle 4.28047e-015 -2.26615e-014
lhumerus -31.2922 -28.3465 81.3353
lradius 125.772
lwrist 2.61724
lhand -21.0527 10.8753
lfingers 7.12502
lthumb 5.32342 40.7885
rfemur -35.6515 6.24812 -0.236221
rtibia 26.4142
rfoot 6.69125 -7.76958
rtoes -18.3939
lfemur 0.084898 -10.6048 -14.7659
ltibia 9.02557
lfoot -17.4643 9.27513
ltoes -8.74505
1679
root 1.2332 15.5568 8.6657 11.3649 6.94614 -1.03829
lowerback -1.00265 0.0621788 -1.01541
upperback -6.21756 0.104943 0.728967
thorax -5.87955 0.131406 1.3202
lowerneck -10.2829 2.79853 8.7868
upperneck 27.1367 4.15712 -7.2375
head 10.7244 2.00128 -3.61225
rclavicle 1.01182e-014 -1.37224e-014
rhumerus -5.43404 0.998174 -64.1341
rradius 106.11
rwrist -0.738017
rhand -37.6861 5.38404
rfingers 7.12502
rthumb -10.7365 -24.3216
lclavicle 1.01182e-014 -1.37224e-014
lhumerus -30.8457 -29.6221 82.009
lradius 126.247
lwrist 2.5765
lhand -20.9223 10.4616
lfingers 7.12502
lthumb 5.44933 40.3715
rfemur -34.9449 5.8024 0.0180098
rtibia 26.4968
rfoot 6.962 -7.99114
rtoes -18.6639
lfemur 0.493162 -11.6835 -14.0444
ltibia 7.89644
lfoot -16.9696 9.04863
ltoes -9.20681
1680
root 1.13869 15.5535 8.74268 11.4144 8.49 -1.07277
lowerback -1.08977 0.111612 -0.972441
upperback -6.2892 0.173378 0.679208
thorax -5.9073 0.163546 1.24165
lowerneck -10.4437 2.35174 8.19593
upperneck 27.4893 3.52589 -6.76142
head 10.8059 1.70894 -3.42096
rclavicle -1.9861e-015 4.34841e-017
rhumerus -4.59192 0.760788 -64.2336
rradius 106.236
rwrist -0.245841
rhand -38.0305 5.51426
rfingers 7.12502
rthumb -11.0687 -24.1739
lclavicle -1.9861e-015 4.34841e-017
lhumerus -30.4139 -30.921 82.6858
lradius 126.687
lwrist 2.54595
lhand -20.8134 10.0972
lfingers 7.12502
lthumb 5.55447 40.0044
rfemur -34.1923 5.17638 0.429943
rtibia 26.6845
rfoot 6.90431 -8.28586
rtoes -19.049
lfemur 0.767272 -12.8252 -13.2738
ltibia 6.9286
lfoot -16.5408 8.85994
ltoes -9.66269
1681
root 1.04034 15.5475 8.8214 11.4696 10.0877 -1.11453
lowerback -1.17081 0.165375 -0.919047
upperback -6.37064 0.247532 0.619006
thorax -5.94879 0.197861 1.14626
lowerneck -10.5639 1.87687 7.58316
upperneck 27.8222 2.85458 -6.26056
head 10.8765 1.40044 -3.22105
rclavicle -4.64426e-015 -3.10601e-015
rhumerus -3.7827 0.504273 -64.3678
rradius 106.368
rwrist 0.247821
rhand -38.2753 5.59657
rfingers 7.12502
rthumb -11.3048 -24.0788
lclavicle -4.64426e-015 -3.10601e-015
lhumerus -30.0151 -32.2416 83.3638
lradius 127.086
lwrist 2.47684
lhand -20.7381 9.78344
lfingers 7.12502
lthumb 5.62723 39.6887
rfemur -33.3967 4.36866 0.990433
rtibia 26.9458
rfoot 6.39274 -8.65137
rtoes -19.4811
lfemur 0.883952 -14.0052 -12.4528
ltibia 6.17316
lfoot -16.2051 8.68987
ltoes -10.1099
1682
root 0.938598 15.5391 8.90211 11.5235 11.7355 -1.16287
lowerback -1.24574 0.224223 -0.851851
upperback -6.45081 0.32832 0.546063
thorax -5.99216 0.234364 1.02965
lowerneck -10.6695 1.37833 6.95417
upperneck 28.1415 2.14787 -5.74123
head 10.9455 1.07732 -3.01528
rclavicle 1.87712e-014 -2.04748e-014
rhumerus -2.99073 0.22608 -64.5418
rradius 106.538
rwrist 0.687589
rhand -38.4711 5.7178
rfingers 7.12502
rthumb -11.4936 -23.9471
lclavicle 1.87712e-014 -2.04748e-014
lhumerus -29.6271 -33.575 84.0267
lradius 127.435
lwrist 2.33792
lhand -20.6955 9.52222
lfingers 7.12502
lthumb 5.66833 39.4264
rfemur -32.5662 3.39674 1.67943
rtibia 27.2525
rfoot 5.3983 -9.09506
rtoes -19.7689
lfemur 0.849052 -15.2271 -11.5827
ltibia 5.62876
lfoot -15.9613 8.54952
ltoes -10.5507
1683
root 0.834159 15.5291 8.98472 11.573 13.4256 -1.21443
lowerback -1.31695 0.29084 -0.767852
upperback -6.5277 0.419211 0.45665
thorax -6.03375 0.274439 0.886141
lowerneck -10.7348 0.8554 6.31074
upperneck 28.4299 1.40513 -5.2033
head 11.0021 0.739654 -2.80352
rclavicle -3.00041e-015 1.93815e-014
rhumerus -2.21862 -0.067843 -64.763
rradius 106.75
rwrist 1.03949
rhand -38.5654 5.81878
rfingers 7.12502
rthumb -11.5846 -23.841
lclavicle -3.00041e-015 1.93815e-014
lhumerus -29.2456 -34.9108 84.6666
lradius 127.731
lwrist 2.14002
lhand -20.6717 9.28027
lfingers 7.12502
lthumb 5.69136 39.1838
rfemur -31.7171 2.29068 2.46727
rtibia 27.5848
rfoot 3.98866 -9.62333
rtoes -19.7032
lfemur 0.700078 -16.483 -10.6708
ltibia 5.22448
lfoot -15.7759 8.43983
ltoes -10.9711
1684
root 0.727781 15.5185 9.06939 11.6047 15.1396 -1.27041
lowerback -1.37355 0.368854 -0.666587
upperback -6.5879 0.524947 0.352679
thorax -6.0654 0.32031 0.717265
lowerneck -10.8022 0.316381 5.65951
upperneck 28.7026 0.636815 -4.65578
head 11.0626 0.391352 -2.58951
rclavicle 2.98146e-014 2.67365e-014
rhumerus -1.43446 -0.360763 -65.0301
rradius 106.989
rwrist 1.31102
rhand -38.6134 5.94292
rfingers 7.12502
rthumb -11.6309 -23.7143
lclavicle 2.98146e-014 2.67365e-014
lhumerus -28.8403 -36.2374 85.2654
lradius 127.978
lwrist 1.90528
lhand -20.6501 9.05584
lfingers 7.12502
lthumb 5.71214 38.9589
rfemur -30.8645 1.10772 3.323
rtibia 27.935
rfoot 2.30838 -10.2156
rtoes -19.2254
lfemur 0.516015 -17.7568 -9.72921
ltibia 4.83975
lfoot -15.5884 8.36557
ltoes -11.3799
1685
root 0.62009 15.5081 9.1557 11.6176 16.854 -1.33395
lowerback -1.41712 0.463542 -0.546742
upperback -6.63171 0.652747 0.23733
thorax -6.08631 0.375594 0.525338
lowerneck -10.855 -0.235253 5.00304
upperneck 28.9527 -0.150103 -4.10473
head 11.122 0.0352694 -2.375
rclavicle -9.73424e-015 3.67752e-015
rhumerus -0.645992 -0.641944 -65.3519
rradius 107.24
rwrist 1.5135
rhand -38.6396 6.16797
rfingers 7.12502
rthumb -11.6561 -23.4878
lclavicle -9.73424e-015 3.67752e-015
lhumerus -28.4198 -37.5403 85.831
lradius 128.184
lwrist 1.6603
lhand -20.6071 8.8332
lfingers 7.12502
lthumb 5.75374 38.7351
rfemur -30.0413 -0.0870405 4.21408
rtibia 28.3043
rfoot 0.53431 -10.8718
rtoes -18.2799
lfemur 0.363566 -19.0269 -8.76782
ltibia 4.3523
lfoot -15.3402 8.32774
ltoes -11.7592
1686
root 0.511469 15.4984 9.24298 11.6181 18.5606 -1.39777
lowerback -1.4435 0.570237 -0.41818
upperback -6.66356 0.796277 0.114046
thorax -6.10329 0.437834 0.319649
lowerneck -10.8922 -0.791259 4.34741
upperneck 29.1857 -0.942218 -3.56009
head 11.1834 -0.323034 -2.16333
rclavicle 1.04983e-014 -1.35174e-014
rhumerus 0.164982 -0.886863 -65.7445
rradius 107.476
rwrist 1.67615
rhand -38.6495 6.44986
rfingers 7.12502
rthumb -11.6656 -23.2054
lclavicle 1.04983e-014 -1.35174e-014
lhumerus -27.9921 -38.8006 86.3672
lradius 128.36
lwrist 1.42807
lhand -20.5297 8.61758
lfingers 7.12502
lthumb 5.8284 38.5174
rfemur -29.2708 -1.25609 5.10671
rtibia 28.7011
rfoot -1.20276 -11.5793
rtoes -17.042
lfemur 0.300303 -20.2886 -7.80468
ltibia 3.6418
lfoot -14.9677 8.33011
ltoes -12.1038
